<svg width="48" height="48" viewBox="0 0 48 48" fill="none" xmlns="http://www.w3.org/2000/svg">
<path fill-rule="evenodd" clip-rule="evenodd" d="M24 40C32.8366 40 40 32.8366 40 24C40 15.1634 32.8366 8 24 8C15.1634 8 8 15.1634 8 24C8 32.8366 15.1634 40 24 40ZM23 15.5C23 16.0523 23.4477 16.5 24 16.5C24.5523 16.5 25 16.0523 25 15.5V14C25 13.4477 24.5523 13 24 13C23.4477 13 23 13.4477 23 14V15.5ZM24 28C26.2091 28 28 26.2091 28 24C28 21.7909 26.2091 20 24 20C21.7909 20 20 21.7909 20 24C20 26.2091 21.7909 28 24 28ZM24 30C27.3137 30 30 27.3137 30 24C30 20.6863 27.3137 18 24 18C20.6863 18 18 20.6863 18 24C18 27.3137 20.6863 30 24 30ZM24 35C23.4477 35 23 34.5523 23 34V32.5C23 31.9477 23.4477 31.5 24 31.5C24.5523 31.5 25 31.9477 25 32.5V34C25 34.5523 24.5523 35 24 35ZM16.2218 16.2218C16.6123 15.8312 17.2455 15.8312 17.636 16.2218L18.6967 17.2824C19.0872 17.6729 19.0872 18.3061 18.6967 18.6966C18.3062 19.0872 17.673 19.0872 17.2825 18.6966L16.2218 17.636C15.8313 17.2454 15.8313 16.6123 16.2218 16.2218ZM30.7175 29.3033C30.327 28.9128 29.6938 28.9128 29.3033 29.3033C28.9128 29.6938 28.9128 30.327 29.3033 30.7175L30.364 31.7782C30.7545 32.1687 31.3876 32.1687 31.7782 31.7782C32.1687 31.3876 32.1687 30.7545 31.7782 30.364L30.7175 29.3033ZM13 24C13 23.4477 13.4477 23 14 23H15.5C16.0523 23 16.5 23.4477 16.5 24C16.5 24.5523 16.0523 25 15.5 25H14C13.4477 25 13 24.5523 13 24ZM32.5 23C31.9477 23 31.5 23.4477 31.5 24C31.5 24.5523 31.9477 25 32.5 25H34C34.5523 25 35 24.5523 35 24C35 23.4477 34.5523 23 34 23H32.5ZM16.2218 31.7782C15.8313 31.3876 15.8313 30.7545 16.2218 30.3639L17.2825 29.3033C17.673 28.9128 18.3062 28.9128 18.6967 29.3033C19.0872 29.6938 19.0872 30.327 18.6967 30.7175L17.636 31.7782C17.2455 32.1687 16.6123 32.1687 16.2218 31.7782ZM29.3033 17.2824C28.9128 17.6729 28.9128 18.3061 29.3033 18.6966C29.6938 19.0871 30.327 19.0871 30.7175 18.6966L31.7782 17.6359C32.1687 17.2454 32.1687 16.6123 31.7782 16.2217C31.3876 15.8312 30.7545 15.8312 30.364 16.2217L29.3033 17.2824Z" fill="white" fill-opacity="0.6"/>
</svg>
